<?xml version="1.0" encoding="UTF-8"?>
<svg xmlns="http://www.w3.org/2000/svg" xmlns:xlink="http://www.w3.org/1999/xlink" width="1190.25pt" height="1683.749945pt" viewBox="0 0 1190.25 1683.749945" version="1.2">
<defs>
<clipPath id="clip1">
  <path d="M 119.03125 317.550781 L 1159.8125 317.550781 L 1159.8125 1358.332031 L 119.03125 1358.332031 Z M 119.03125 317.550781 "/>
</clipPath>
<filter id="alpha" filterUnits="objectBoundingBox" x="0%" y="0%" width="100%" height="100%">
  <feColorMatrix type="matrix" in="SourceGraphic" values="0 0 0 0 1 0 0 0 0 1 0 0 0 0 1 0 0 0 1 0"/>
</filter>
<mask id="mask0">
  <g filter="url(#alpha)">
<rect x="0" y="0" width="1190.25" height="1683.749945" style="fill:rgb(0%,0%,0%);fill-opacity:0.2;stroke:none;"/>
  </g>
</mask>
<clipPath id="clip3">
  <path d="M 1 1 L 375.769531 1 L 375.769531 153.695312 L 1 153.695312 Z M 1 1 "/>
</clipPath>
<clipPath id="clip2">
  <rect x="0" y="0" width="376" height="154"/>
</clipPath>
<g id="surface5" clip-path="url(#clip2)">
<g clip-path="url(#clip3)" clip-rule="nonzero">
<path style=" stroke:none;fill-rule:nonzero;fill:rgb(21.958923%,0.779724%,23.139954%);fill-opacity:1;" d="M 1.335938 151.46875 C 1.335938 152.160156 1.335938 152.507812 1.335938 153.203125 L 375.324219 153.203125 C 375.324219 152.507812 375.324219 152.160156 375.324219 151.46875 C 375.324219 120.9375 350.34375 95.960938 319.816406 95.960938 C 313.222656 95.960938 306.980469 97 301.082031 99.082031 C 303.164062 92.144531 304.203125 84.855469 304.203125 77.226562 C 304.203125 35.246094 270.207031 1.59375 228.574219 1.59375 C 201.167969 1.59375 176.882812 16.164062 163.699219 38.367188 C 159.535156 37.328125 155.027344 36.980469 150.515625 36.980469 C 117.90625 36.980469 91.191406 63.347656 91.191406 96.304688 C 91.191406 100.816406 91.539062 105.324219 92.578125 109.488281 C 82.863281 101.164062 70.375 96.304688 56.84375 96.304688 C 26.316406 95.960938 1.335938 120.9375 1.335938 151.46875 Z M 1.335938 151.46875 "/>
</g>
</g>
<mask id="mask1">
  <g filter="url(#alpha)">
<rect x="0" y="0" width="1190.25" height="1683.749945" style="fill:rgb(0%,0%,0%);fill-opacity:0.2;stroke:none;"/>
  </g>
</mask>
<clipPath id="clip5">
  <path d="M 2 1 L 306.394531 1 L 306.394531 125 L 2 125 Z M 2 1 "/>
</clipPath>
<clipPath id="clip4">
  <rect x="0" y="0" width="307" height="126"/>
</clipPath>
<g id="surface8" clip-path="url(#clip4)">
<g clip-path="url(#clip5)" clip-rule="nonzero">
<path style=" stroke:none;fill-rule:nonzero;fill:rgb(21.958923%,0.779724%,23.139954%);fill-opacity:1;" d="M 2.777344 122.964844 C 2.777344 123.3125 2.777344 124.003906 2.777344 124.351562 L 306.335938 124.351562 C 306.335938 124.003906 306.335938 123.3125 306.335938 122.964844 C 306.335938 97.984375 286.214844 77.863281 261.234375 77.863281 C 256.03125 77.863281 250.828125 78.90625 246.316406 80.640625 C 248.050781 75.089844 249.09375 69.191406 249.09375 62.945312 C 249.09375 28.949219 221.6875 1.539062 187.6875 1.539062 C 165.484375 1.539062 145.710938 13.335938 134.953125 31.375 C 131.484375 30.683594 128.015625 29.988281 124.199219 29.988281 C 97.488281 29.988281 75.976562 51.496094 75.976562 78.210938 C 75.976562 82.027344 76.324219 85.496094 77.363281 88.964844 C 69.386719 82.375 59.324219 78.210938 48.222656 78.210938 C 22.898438 77.863281 2.777344 97.984375 2.777344 122.964844 Z M 2.777344 122.964844 "/>
</g>
</g>
<mask id="mask2">
  <g filter="url(#alpha)">
<rect x="0" y="0" width="1190.25" height="1683.749945" style="fill:rgb(0%,0%,0%);fill-opacity:0.098;stroke:none;"/>
  </g>
</mask>
<clipPath id="clip7">
  <path d="M 2 3 L 288.941406 3 L 288.941406 208 L 2 208 Z M 2 3 "/>
</clipPath>
<clipPath id="clip6">
  <rect x="0" y="0" width="289" height="209"/>
</clipPath>
<g id="surface11" clip-path="url(#clip6)">
<g clip-path="url(#clip7)" clip-rule="nonzero">
<path style=" stroke:none;fill-rule:nonzero;fill:rgb(21.958923%,0.779724%,23.139954%);fill-opacity:1;" d="M 288.8125 52.039062 C 257.933594 59.324219 234.34375 84.996094 229.488281 116.570312 C 220.121094 112.753906 210.058594 110.671875 199.652344 110.671875 C 155.589844 110.671875 119.859375 146.402344 119.859375 190.464844 C 119.859375 196.363281 120.550781 202.257812 121.59375 207.808594 L 2.597656 207.808594 C 2.597656 207.117188 2.597656 206.421875 2.597656 205.730469 C 2.597656 164.445312 36.25 130.792969 77.878906 130.792969 C 86.554688 130.792969 95.226562 132.179688 102.859375 135.300781 C 100.082031 125.933594 98.347656 115.875 98.347656 105.8125 C 98.347656 49.265625 144.144531 3.125 201.039062 3.125 C 238.507812 2.777344 270.769531 22.550781 288.8125 52.039062 Z M 288.8125 52.039062 "/>
</g>
</g>
<mask id="mask3">
  <g filter="url(#alpha)">
<rect x="0" y="0" width="1190.25" height="1683.749945" style="fill:rgb(0%,0%,0%);fill-opacity:0.098;stroke:none;"/>
  </g>
</mask>
<clipPath id="clip9">
  <path d="M 0.292969 1 L 59 1 L 59 59.609375 L 0.292969 59.609375 Z M 0.292969 1 "/>
</clipPath>
<clipPath id="clip8">
  <rect x="0" y="0" width="60" height="60"/>
</clipPath>
<g id="surface14" clip-path="url(#clip8)">
<g clip-path="url(#clip9)" clip-rule="nonzero">
<path style=" stroke:none;fill-rule:nonzero;fill:rgb(21.958923%,0.779724%,23.139954%);fill-opacity:1;" d="M 58.414062 30.261719 C 58.414062 31.203125 58.367188 32.144531 58.273438 33.085938 C 58.179688 34.023438 58.042969 34.953125 57.859375 35.878906 C 57.675781 36.804688 57.445312 37.71875 57.171875 38.621094 C 56.898438 39.523438 56.582031 40.410156 56.222656 41.28125 C 55.859375 42.152344 55.457031 43.003906 55.011719 43.835938 C 54.566406 44.667969 54.082031 45.476562 53.558594 46.257812 C 53.035156 47.042969 52.476562 47.800781 51.875 48.527344 C 51.277344 49.257812 50.644531 49.957031 49.980469 50.621094 C 49.3125 51.289062 48.613281 51.921875 47.886719 52.519531 C 47.15625 53.117188 46.398438 53.679688 45.617188 54.203125 C 44.832031 54.726562 44.023438 55.210938 43.191406 55.65625 C 42.359375 56.101562 41.507812 56.503906 40.636719 56.863281 C 39.765625 57.226562 38.878906 57.542969 37.976562 57.816406 C 37.074219 58.089844 36.160156 58.320312 35.234375 58.503906 C 34.308594 58.6875 33.378906 58.824219 32.441406 58.917969 C 31.5 59.011719 30.5625 59.054688 29.617188 59.054688 C 28.675781 59.054688 27.734375 59.011719 26.796875 58.917969 C 25.855469 58.824219 24.925781 58.6875 24 58.503906 C 23.074219 58.320312 22.160156 58.089844 21.257812 57.816406 C 20.355469 57.542969 19.46875 57.226562 18.597656 56.863281 C 17.726562 56.503906 16.875 56.101562 16.042969 55.65625 C 15.210938 55.210938 14.402344 54.726562 13.621094 54.203125 C 12.835938 53.679688 12.078125 53.117188 11.351562 52.519531 C 10.621094 51.921875 9.921875 51.289062 9.257812 50.621094 C 8.589844 49.957031 7.957031 49.257812 7.359375 48.527344 C 6.761719 47.800781 6.199219 47.042969 5.675781 46.257812 C 5.152344 45.476562 4.667969 44.667969 4.222656 43.835938 C 3.777344 43.003906 3.375 42.152344 3.015625 41.28125 C 2.652344 40.410156 2.335938 39.523438 2.0625 38.621094 C 1.789062 37.71875 1.558594 36.804688 1.375 35.878906 C 1.191406 34.953125 1.054688 34.023438 0.960938 33.085938 C 0.867188 32.144531 0.824219 31.203125 0.824219 30.261719 C 0.824219 29.320312 0.867188 28.378906 0.960938 27.4375 C 1.054688 26.5 1.191406 25.570312 1.375 24.644531 C 1.558594 23.71875 1.789062 22.804688 2.0625 21.902344 C 2.335938 21 2.652344 20.113281 3.015625 19.242188 C 3.375 18.371094 3.777344 17.519531 4.222656 16.6875 C 4.667969 15.855469 5.152344 15.046875 5.675781 14.265625 C 6.199219 13.480469 6.761719 12.722656 7.359375 11.996094 C 7.957031 11.265625 8.589844 10.566406 9.257812 9.902344 C 9.921875 9.234375 10.621094 8.601562 11.351562 8.003906 C 12.078125 7.40625 12.835938 6.84375 13.621094 6.320312 C 14.402344 5.796875 15.210938 5.3125 16.042969 4.867188 C 16.875 4.421875 17.726562 4.019531 18.597656 3.660156 C 19.46875 3.296875 20.355469 2.980469 21.257812 2.707031 C 22.160156 2.433594 23.074219 2.203125 24 2.019531 C 24.925781 1.835938 25.855469 1.699219 26.796875 1.605469 C 27.734375 1.511719 28.675781 1.464844 29.617188 1.464844 C 30.5625 1.464844 31.5 1.511719 32.441406 1.605469 C 33.378906 1.699219 34.308594 1.835938 35.234375 2.019531 C 36.160156 2.203125 37.074219 2.433594 37.976562 2.707031 C 38.878906 2.980469 39.765625 3.296875 40.636719 3.660156 C 41.507812 4.019531 42.359375 4.421875 43.191406 4.867188 C 44.023438 5.3125 44.832031 5.796875 45.617188 6.320312 C 46.398438 6.84375 47.15625 7.40625 47.886719 8.003906 C 48.613281 8.601562 49.3125 9.234375 49.980469 9.902344 C 50.644531 10.566406 51.277344 11.265625 51.875 11.996094 C 52.476562 12.722656 53.035156 13.480469 53.558594 14.265625 C 54.082031 15.046875 54.566406 15.855469 55.011719 16.6875 C 55.457031 17.519531 55.859375 18.371094 56.222656 19.242188 C 56.582031 20.113281 56.898438 21 57.171875 21.902344 C 57.445312 22.804688 57.675781 23.71875 57.859375 24.644531 C 58.042969 25.570312 58.179688 26.5 58.273438 27.4375 C 58.367188 28.378906 58.414062 29.320312 58.414062 30.261719 Z M 58.414062 30.261719 "/>
</g>
</g>
<mask id="mask4">
  <g filter="url(#alpha)">
<rect x="0" y="0" width="1190.25" height="1683.749945" style="fill:rgb(0%,0%,0%);fill-opacity:0.098;stroke:none;"/>
  </g>
</mask>
<clipPath id="clip10">
  <rect x="0" y="0" width="26" height="28"/>
</clipPath>
<g id="surface17" clip-path="url(#clip10)">
<path style=" stroke:none;fill-rule:nonzero;fill:rgb(21.958923%,0.779724%,23.139954%);fill-opacity:1;" d="M 24.515625 14.363281 C 24.515625 15.09375 24.441406 15.816406 24.300781 16.53125 C 24.160156 17.246094 23.949219 17.941406 23.667969 18.613281 C 23.390625 19.285156 23.046875 19.925781 22.644531 20.53125 C 22.238281 21.140625 21.777344 21.699219 21.261719 22.214844 C 20.746094 22.730469 20.1875 23.191406 19.582031 23.59375 C 18.972656 24 18.335938 24.34375 17.660156 24.621094 C 16.988281 24.902344 16.292969 25.109375 15.578125 25.253906 C 14.863281 25.394531 14.140625 25.464844 13.414062 25.464844 C 12.683594 25.464844 11.960938 25.394531 11.246094 25.253906 C 10.53125 25.109375 9.835938 24.902344 9.164062 24.621094 C 8.492188 24.34375 7.851562 24 7.246094 23.59375 C 6.640625 23.191406 6.078125 22.730469 5.5625 22.214844 C 5.046875 21.699219 4.585938 21.140625 4.183594 20.53125 C 3.777344 19.925781 3.433594 19.285156 3.15625 18.613281 C 2.878906 17.941406 2.667969 17.246094 2.523438 16.53125 C 2.382812 15.816406 2.3125 15.09375 2.3125 14.363281 C 2.3125 13.636719 2.382812 12.914062 2.523438 12.199219 C 2.667969 11.484375 2.878906 10.789062 3.15625 10.117188 C 3.433594 9.441406 3.777344 8.804688 4.183594 8.195312 C 4.585938 7.589844 5.046875 7.03125 5.5625 6.515625 C 6.078125 6 6.640625 5.539062 7.246094 5.132812 C 7.851562 4.730469 8.492188 4.386719 9.164062 4.109375 C 9.835938 3.828125 10.53125 3.617188 11.246094 3.476562 C 11.960938 3.335938 12.683594 3.261719 13.414062 3.261719 C 14.140625 3.261719 14.863281 3.335938 15.578125 3.476562 C 16.292969 3.617188 16.988281 3.828125 17.660156 4.109375 C 18.335938 4.386719 18.972656 4.730469 19.582031 5.132812 C 20.1875 5.539062 20.746094 6 21.261719 6.515625 C 21.777344 7.03125 22.238281 7.589844 22.644531 8.195312 C 23.046875 8.804688 23.390625 9.441406 23.667969 10.117188 C 23.949219 10.789062 24.160156 11.484375 24.300781 12.199219 C 24.441406 12.914062 24.515625 13.636719 24.515625 14.363281 Z M 24.515625 14.363281 "/>
</g>
<mask id="mask5">
  <g filter="url(#alpha)">
<rect x="0" y="0" width="1190.25" height="1683.749945" style="fill:rgb(0%,0%,0%);fill-opacity:0.098;stroke:none;"/>
  </g>
</mask>
<clipPath id="clip12">
  <path d="M 0.785156 2 L 24 2 L 24 25 L 0.785156 25 Z M 0.785156 2 "/>
</clipPath>
<clipPath id="clip11">
  <rect x="0" y="0" width="26" height="26"/>
</clipPath>
<g id="surface20" clip-path="url(#clip11)">
<g clip-path="url(#clip12)" clip-rule="nonzero">
<path style=" stroke:none;fill-rule:nonzero;fill:rgb(21.958923%,0.779724%,23.139954%);fill-opacity:1;" d="M 23.160156 13.394531 C 23.160156 14.125 23.089844 14.847656 22.945312 15.5625 C 22.804688 16.277344 22.59375 16.972656 22.316406 17.644531 C 22.035156 18.316406 21.695312 18.957031 21.289062 19.5625 C 20.882812 20.171875 20.425781 20.730469 19.910156 21.246094 C 19.394531 21.761719 18.832031 22.222656 18.226562 22.625 C 17.621094 23.03125 16.980469 23.375 16.308594 23.652344 C 15.632812 23.933594 14.9375 24.140625 14.222656 24.285156 C 13.507812 24.425781 12.789062 24.496094 12.058594 24.496094 C 11.328125 24.496094 10.609375 24.425781 9.894531 24.285156 C 9.179688 24.140625 8.484375 23.933594 7.808594 23.652344 C 7.136719 23.375 6.496094 23.03125 5.890625 22.625 C 5.285156 22.222656 4.722656 21.761719 4.207031 21.246094 C 3.691406 20.730469 3.234375 20.171875 2.828125 19.5625 C 2.421875 18.957031 2.082031 18.316406 1.800781 17.644531 C 1.523438 16.972656 1.3125 16.277344 1.171875 15.5625 C 1.027344 14.847656 0.957031 14.125 0.957031 13.394531 C 0.957031 12.667969 1.027344 11.945312 1.171875 11.230469 C 1.3125 10.515625 1.523438 9.820312 1.800781 9.148438 C 2.082031 8.472656 2.421875 7.835938 2.828125 7.226562 C 3.234375 6.621094 3.691406 6.0625 4.207031 5.546875 C 4.722656 5.03125 5.285156 4.570312 5.890625 4.164062 C 6.496094 3.761719 7.136719 3.417969 7.808594 3.140625 C 8.484375 2.859375 9.179688 2.648438 9.894531 2.507812 C 10.609375 2.367188 11.328125 2.292969 12.058594 2.292969 C 12.789062 2.292969 13.507812 2.367188 14.222656 2.507812 C 14.9375 2.648438 15.632812 2.859375 16.308594 3.140625 C 16.980469 3.417969 17.621094 3.761719 18.226562 4.164062 C 18.832031 4.570312 19.394531 5.03125 19.910156 5.546875 C 20.425781 6.0625 20.882812 6.621094 21.289062 7.226562 C 21.695312 7.835938 22.035156 8.472656 22.316406 9.148438 C 22.59375 9.820312 22.804688 10.515625 22.945312 11.230469 C 23.089844 11.945312 23.160156 12.667969 23.160156 13.394531 Z M 23.160156 13.394531 "/>
</g>
</g>
<mask id="mask6">
  <g filter="url(#alpha)">
<rect x="0" y="0" width="1190.25" height="1683.749945" style="fill:rgb(0%,0%,0%);fill-opacity:0.4;stroke:none;"/>
  </g>
</mask>
<clipPath id="clip13">
  <rect x="0" y="0" width="33" height="29"/>
</clipPath>
<g id="surface23" clip-path="url(#clip13)">
<path style=" stroke:none;fill-rule:nonzero;fill:rgb(21.958923%,0.779724%,23.139954%);fill-opacity:1;" d="M 17.273438 3.339844 L 21.089844 10.28125 C 21.089844 10.28125 21.4375 10.625 21.4375 10.625 L 28.375 14.441406 C 29.070312 14.789062 29.070312 15.832031 28.375 16.175781 L 21.4375 19.992188 C 21.4375 19.992188 21.089844 20.339844 21.089844 20.339844 L 17.273438 27.277344 C 16.925781 27.972656 15.886719 27.972656 15.539062 27.277344 L 11.722656 20.339844 C 11.722656 20.339844 11.375 19.992188 11.375 19.992188 L 4.4375 16.175781 C 3.742188 15.832031 3.742188 14.789062 4.4375 14.441406 L 11.375 10.625 C 11.375 10.625 11.722656 10.28125 11.722656 10.28125 L 15.539062 3.339844 C 16.234375 2.648438 16.925781 2.648438 17.273438 3.339844 Z M 17.273438 3.339844 "/>
</g>
<mask id="mask7">
  <g filter="url(#alpha)">
<rect x="0" y="0" width="1190.25" height="1683.749945" style="fill:rgb(0%,0%,0%);fill-opacity:0.4;stroke:none;"/>
  </g>
</mask>
<clipPath id="clip14">
  <rect x="0" y="0" width="32" height="32"/>
</clipPath>
<g id="surface26" clip-path="url(#clip14)">
<path style=" stroke:none;fill-rule:nonzero;fill:rgb(21.958923%,0.779724%,23.139954%);fill-opacity:1;" d="M 16.886719 3.65625 L 20.703125 10.59375 C 20.703125 10.59375 21.050781 10.941406 21.050781 10.941406 L 27.988281 14.757812 C 28.683594 15.105469 28.683594 16.144531 27.988281 16.492188 L 21.050781 20.308594 C 21.050781 20.308594 20.703125 20.65625 20.703125 20.65625 L 16.886719 27.59375 C 16.539062 28.285156 15.5 28.285156 15.152344 27.59375 L 11.335938 20.65625 C 11.335938 20.65625 10.988281 20.308594 10.988281 20.308594 L 4.050781 16.492188 C 3.359375 16.144531 3.359375 15.105469 4.050781 14.757812 L 10.988281 10.941406 C 10.988281 10.941406 11.335938 10.59375 11.335938 10.59375 L 15.152344 3.65625 C 15.5 2.960938 16.539062 2.960938 16.886719 3.65625 Z M 16.886719 3.65625 "/>
</g>
<mask id="mask8">
  <g filter="url(#alpha)">
<rect x="0" y="0" width="1190.25" height="1683.749945" style="fill:rgb(0%,0%,0%);fill-opacity:0.4;stroke:none;"/>
  </g>
</mask>
<clipPath id="clip15">
  <rect x="0" y="0" width="39" height="36"/>
</clipPath>
<g id="surface29" clip-path="url(#clip15)">
<path style=" stroke:none;fill-rule:nonzero;fill:rgb(21.958923%,0.779724%,23.139954%);fill-opacity:1;" d="M 20.816406 1.828125 L 26.019531 11.542969 C 26.019531 11.890625 26.367188 11.890625 26.367188 11.890625 L 36.082031 17.09375 C 36.773438 17.441406 36.773438 18.828125 36.082031 19.175781 L 26.367188 24.378906 C 26.019531 24.378906 26.019531 24.726562 26.019531 24.726562 L 20.816406 34.441406 C 20.46875 35.132812 19.082031 35.132812 18.734375 34.441406 L 13.53125 24.726562 C 13.53125 24.378906 13.183594 24.378906 13.183594 24.378906 L 3.46875 19.175781 C 2.777344 18.828125 2.777344 17.441406 3.46875 17.09375 L 13.183594 11.890625 C 13.53125 11.890625 13.53125 11.542969 13.53125 11.542969 L 18.734375 1.828125 C 19.082031 1.136719 20.46875 1.136719 20.816406 1.828125 Z M 20.816406 1.828125 "/>
</g>
<mask id="mask9">
  <g filter="url(#alpha)">
<rect x="0" y="0" width="1190.25" height="1683.749945" style="fill:rgb(0%,0%,0%);fill-opacity:0.4;stroke:none;"/>
  </g>
</mask>
<clipPath id="clip17">
  <path d="M 0.078125 3 L 65 3 L 65 68 L 0.078125 68 Z M 0.078125 3 "/>
</clipPath>
<clipPath id="clip16">
  <rect x="0" y="0" width="67" height="71"/>
</clipPath>
<g id="surface32" clip-path="url(#clip16)">
<g clip-path="url(#clip17)" clip-rule="nonzero">
<path style=" stroke:none;fill-rule:nonzero;fill:rgb(21.958923%,0.779724%,23.139954%);fill-opacity:1;" d="M 34.816406 4.691406 L 44.53125 22.382812 C 44.878906 22.730469 45.222656 23.078125 45.570312 23.421875 L 63.265625 33.136719 C 65 34.179688 65 36.261719 63.265625 37.300781 L 45.570312 47.015625 C 45.222656 47.363281 44.878906 47.707031 44.53125 48.054688 L 34.816406 65.75 C 33.777344 67.484375 31.695312 67.484375 30.652344 65.75 L 20.9375 48.054688 C 20.59375 47.707031 20.246094 47.363281 19.898438 47.015625 L 2.207031 37.300781 C 0.46875 36.261719 0.46875 34.179688 2.207031 33.136719 L 19.898438 23.421875 C 20.246094 23.078125 20.59375 22.730469 20.9375 22.382812 L 30.652344 4.691406 C 31.695312 2.953125 34.121094 2.953125 34.816406 4.691406 Z M 34.816406 4.691406 "/>
</g>
</g>
<mask id="mask10">
  <g filter="url(#alpha)">
<rect x="0" y="0" width="1190.25" height="1683.749945" style="fill:rgb(0%,0%,0%);fill-opacity:0.4;stroke:none;"/>
  </g>
</mask>
<clipPath id="clip19">
  <path d="M 3 2 L 48.882812 2 L 48.882812 48 L 3 48 Z M 3 2 "/>
</clipPath>
<clipPath id="clip18">
  <rect x="0" y="0" width="49" height="49"/>
</clipPath>
<g id="surface35" clip-path="url(#clip18)">
<g clip-path="url(#clip19)" clip-rule="nonzero">
<path style=" stroke:none;fill-rule:nonzero;fill:rgb(21.958923%,0.779724%,23.139954%);fill-opacity:1;" d="M 27.332031 2.945312 L 34.269531 15.78125 C 34.269531 16.128906 34.617188 16.128906 34.960938 16.476562 L 47.800781 23.414062 C 48.839844 24.105469 48.839844 25.84375 47.800781 26.1875 L 34.960938 33.128906 C 34.617188 33.128906 34.617188 33.472656 34.269531 33.820312 L 27.332031 46.65625 C 26.636719 47.699219 24.902344 47.699219 24.554688 46.65625 L 17.617188 33.820312 C 17.617188 33.472656 17.269531 33.472656 16.921875 33.128906 L 4.085938 26.1875 C 3.046875 25.496094 3.046875 23.761719 4.085938 23.414062 L 16.921875 16.476562 C 17.269531 16.476562 17.269531 16.128906 17.617188 15.78125 L 24.554688 2.945312 C 25.25 1.902344 26.984375 1.902344 27.332031 2.945312 Z M 27.332031 2.945312 "/>
</g>
</g>
<mask id="mask11">
  <g filter="url(#alpha)">
<rect x="0" y="0" width="1190.25" height="1683.749945" style="fill:rgb(0%,0%,0%);fill-opacity:0.4;stroke:none;"/>
  </g>
</mask>
<clipPath id="clip21">
  <path d="M 0.125 1 L 45 1 L 45 46 L 0.125 46 Z M 0.125 1 "/>
</clipPath>
<clipPath id="clip20">
  <rect x="0" y="0" width="46" height="50"/>
</clipPath>
<g id="surface38" clip-path="url(#clip20)">
<g clip-path="url(#clip21)" clip-rule="nonzero">
<path style=" stroke:none;fill-rule:nonzero;fill:rgb(21.958923%,0.779724%,23.139954%);fill-opacity:1;" d="M 24.101562 1.886719 L 31.039062 14.375 C 31.039062 14.722656 31.386719 14.722656 31.734375 15.070312 L 44.222656 22.007812 C 45.261719 22.703125 45.261719 24.089844 44.222656 24.785156 L 31.734375 31.722656 C 31.386719 31.722656 31.386719 32.070312 31.039062 32.417969 L 24.101562 44.90625 C 23.40625 45.945312 22.019531 45.945312 21.324219 44.90625 L 14.386719 32.417969 C 14.386719 32.070312 14.039062 32.070312 13.691406 31.722656 L 1.203125 24.785156 C 0.164062 24.089844 0.164062 22.703125 1.203125 22.007812 L 13.691406 15.070312 C 14.039062 15.070312 14.039062 14.722656 14.386719 14.375 L 21.324219 1.886719 C 22.019531 0.847656 23.40625 0.847656 24.101562 1.886719 Z M 24.101562 1.886719 "/>
</g>
</g>
<clipPath id="clip22">
  <path d="M 622 891 L 665 891 L 665 911.765625 L 622 911.765625 Z M 622 891 "/>
</clipPath>
</defs>
<g id="surface1">
<g clip-path="url(#clip1)" clip-rule="nonzero">
<path style=" stroke:none;fill-rule:nonzero;fill:rgb(14.898682%,13.328552%,38.42926%);fill-opacity:1;" d="M 1159.8125 837.941406 C 1159.8125 846.457031 1159.601562 854.96875 1159.183594 863.472656 C 1158.765625 871.980469 1158.140625 880.472656 1157.304688 888.949219 C 1156.46875 897.421875 1155.425781 905.871094 1154.179688 914.296875 C 1152.929688 922.722656 1151.472656 931.109375 1149.8125 939.464844 C 1148.148438 947.816406 1146.285156 956.125 1144.214844 964.382812 C 1142.144531 972.644531 1139.875 980.851562 1137.402344 989 C 1134.929688 997.152344 1132.257812 1005.234375 1129.390625 1013.253906 C 1126.519531 1021.273438 1123.457031 1029.214844 1120.199219 1037.085938 C 1116.9375 1044.953125 1113.488281 1052.738281 1109.847656 1060.433594 C 1106.207031 1068.132812 1102.378906 1075.738281 1098.363281 1083.25 C 1094.347656 1090.761719 1090.152344 1098.167969 1085.773438 1105.472656 C 1081.394531 1112.777344 1076.839844 1119.972656 1072.109375 1127.054688 C 1067.378906 1134.132812 1062.476562 1141.09375 1057.402344 1147.9375 C 1052.328125 1154.777344 1047.089844 1161.488281 1041.6875 1168.070312 C 1036.285156 1174.65625 1030.722656 1181.101562 1025.003906 1187.414062 C 1019.285156 1193.722656 1013.414062 1199.890625 1007.390625 1205.910156 C 1001.371094 1211.933594 995.203125 1217.804688 988.894531 1223.523438 C 982.582031 1229.242188 976.136719 1234.804688 969.550781 1240.207031 C 962.96875 1245.609375 956.257812 1250.847656 949.417969 1255.921875 C 942.574219 1260.996094 935.613281 1265.898438 928.535156 1270.628906 C 921.453125 1275.359375 914.257812 1279.914062 906.953125 1284.292969 C 899.648438 1288.671875 892.242188 1292.867188 884.730469 1296.882812 C 877.21875 1300.898438 869.613281 1304.726562 861.914062 1308.367188 C 854.21875 1312.007812 846.433594 1315.457031 838.566406 1318.71875 C 830.695312 1321.976562 822.753906 1325.042969 814.734375 1327.910156 C 806.714844 1330.78125 798.632812 1333.449219 790.480469 1335.921875 C 782.332031 1338.394531 774.125 1340.664062 765.863281 1342.734375 C 757.601562 1344.804688 749.296875 1346.667969 740.941406 1348.332031 C 732.589844 1349.992188 724.203125 1351.449219 715.777344 1352.699219 C 707.351562 1353.949219 698.902344 1354.988281 690.425781 1355.824219 C 681.953125 1356.660156 673.460938 1357.285156 664.953125 1357.703125 C 656.449219 1358.121094 647.9375 1358.332031 639.421875 1358.332031 C 630.902344 1358.332031 622.390625 1358.121094 613.886719 1357.703125 C 605.378906 1357.285156 596.890625 1356.660156 588.414062 1355.824219 C 579.9375 1354.988281 571.488281 1353.949219 563.0625 1352.699219 C 554.640625 1351.449219 546.25 1349.992188 537.898438 1348.332031 C 529.542969 1346.667969 521.238281 1344.804688 512.976562 1342.734375 C 504.714844 1340.664062 496.507812 1338.394531 488.359375 1335.921875 C 480.210938 1333.449219 472.125 1330.78125 464.105469 1327.910156 C 456.085938 1325.042969 448.144531 1321.976562 440.277344 1318.71875 C 432.40625 1315.457031 424.625 1312.007812 416.925781 1308.367188 C 409.226562 1304.726562 401.621094 1300.898438 394.109375 1296.882812 C 386.597656 1292.867188 379.191406 1288.671875 371.886719 1284.292969 C 364.582031 1279.914062 357.386719 1275.359375 350.308594 1270.628906 C 343.226562 1265.898438 336.265625 1260.996094 329.425781 1255.921875 C 322.582031 1250.847656 315.871094 1245.609375 309.289062 1240.207031 C 302.703125 1234.804688 296.257812 1229.242188 289.949219 1223.523438 C 283.636719 1217.804688 277.472656 1211.933594 271.449219 1205.910156 C 265.425781 1199.890625 259.554688 1193.722656 253.835938 1187.414062 C 248.117188 1181.101562 242.554688 1174.65625 237.152344 1168.070312 C 231.75 1161.488281 226.511719 1154.777344 221.4375 1147.9375 C 216.367188 1141.09375 211.464844 1134.132812 206.730469 1127.054688 C 202 1119.972656 197.445312 1112.777344 193.066406 1105.472656 C 188.6875 1098.167969 184.492188 1090.761719 180.476562 1083.25 C 176.460938 1075.738281 172.632812 1068.132812 168.992188 1060.433594 C 165.351562 1052.738281 161.902344 1044.953125 158.640625 1037.085938 C 155.382812 1029.214844 152.320312 1021.273438 149.449219 1013.253906 C 146.582031 1005.234375 143.910156 997.152344 141.4375 989 C 138.964844 980.851562 136.695312 972.644531 134.625 964.382812 C 132.554688 956.125 130.691406 947.816406 129.027344 939.464844 C 127.367188 931.109375 125.910156 922.722656 124.664062 914.296875 C 123.414062 905.871094 122.371094 897.421875 121.535156 888.949219 C 120.699219 880.472656 120.074219 871.980469 119.65625 863.472656 C 119.238281 854.96875 119.03125 846.457031 119.03125 837.941406 C 119.03125 829.421875 119.238281 820.910156 119.65625 812.40625 C 120.074219 803.898438 120.699219 795.410156 121.535156 786.933594 C 122.371094 778.457031 123.414062 770.007812 124.664062 761.582031 C 125.910156 753.160156 127.367188 744.769531 129.027344 736.417969 C 130.691406 728.0625 132.554688 719.757812 134.625 711.496094 C 136.695312 703.234375 138.964844 695.027344 141.4375 686.878906 C 143.910156 678.730469 146.582031 670.644531 149.449219 662.625 C 152.320312 654.605469 155.382812 646.664062 158.640625 638.796875 C 161.902344 630.925781 165.351562 623.144531 168.992188 615.445312 C 172.632812 607.746094 176.460938 600.140625 180.476562 592.628906 C 184.492188 585.117188 188.6875 577.710938 193.066406 570.40625 C 197.445312 563.101562 202 555.90625 206.730469 548.828125 C 211.464844 541.746094 216.367188 534.785156 221.4375 527.945312 C 226.511719 521.101562 231.75 514.390625 237.152344 507.808594 C 242.554688 501.222656 248.117188 494.777344 253.835938 488.46875 C 259.554688 482.15625 265.425781 475.992188 271.449219 469.96875 C 277.472656 463.945312 283.636719 458.074219 289.949219 452.355469 C 296.257812 446.636719 302.703125 441.074219 309.289062 435.671875 C 315.871094 430.269531 322.582031 425.03125 329.425781 419.957031 C 336.265625 414.886719 343.226562 409.984375 350.308594 405.25 C 357.386719 400.519531 364.582031 395.964844 371.886719 391.585938 C 379.191406 387.207031 386.597656 383.011719 394.109375 378.996094 C 401.621094 374.980469 409.226562 371.152344 416.925781 367.511719 C 424.625 363.871094 432.40625 360.421875 440.277344 357.164062 C 448.144531 353.902344 456.085938 350.839844 464.105469 347.96875 C 472.125 345.101562 480.210938 342.429688 488.359375 339.957031 C 496.507812 337.484375 504.714844 335.214844 512.976562 333.144531 C 521.238281 331.074219 529.542969 329.210938 537.898438 327.550781 C 546.25 325.886719 554.640625 324.433594 563.0625 323.183594 C 571.488281 321.933594 579.9375 320.890625 588.414062 320.054688 C 596.890625 319.222656 605.378906 318.59375 613.886719 318.175781 C 622.390625 317.757812 630.902344 317.550781 639.421875 317.550781 C 647.9375 317.550781 656.449219 317.757812 664.953125 318.175781 C 673.460938 318.59375 681.953125 319.222656 690.425781 320.054688 C 698.902344 320.890625 707.351562 321.933594 715.777344 323.183594 C 724.203125 324.433594 732.589844 325.886719 740.941406 327.550781 C 749.296875 329.210938 757.601562 331.074219 765.863281 333.144531 C 774.125 335.214844 782.332031 337.484375 790.480469 339.957031 C 798.632812 342.429688 806.714844 345.101562 814.734375 347.96875 C 822.753906 350.839844 830.695312 353.902344 838.566406 357.164062 C 846.433594 360.421875 854.21875 363.871094 861.914062 367.511719 C 869.613281 371.152344 877.21875 374.980469 884.730469 378.996094 C 892.242188 383.011719 899.648438 387.207031 906.953125 391.585938 C 914.257812 395.964844 921.453125 400.519531 928.535156 405.25 C 935.613281 409.984375 942.574219 414.886719 949.417969 419.957031 C 956.257812 425.03125 962.96875 430.269531 969.550781 435.671875 C 976.136719 441.074219 982.582031 446.636719 988.894531 452.355469 C 995.203125 458.074219 1001.371094 463.945312 1007.390625 469.96875 C 1013.414062 475.992188 1019.285156 482.15625 1025.003906 488.46875 C 1030.722656 494.777344 1036.285156 501.222656 1041.6875 507.808594 C 1047.089844 514.390625 1052.328125 521.101562 1057.402344 527.945312 C 1062.476562 534.785156 1067.378906 541.746094 1072.109375 548.828125 C 1076.839844 555.90625 1081.394531 563.101562 1085.773438 570.40625 C 1090.152344 577.710938 1094.347656 585.117188 1098.363281 592.628906 C 1102.378906 600.140625 1106.207031 607.746094 1109.847656 615.445312 C 1113.488281 623.144531 1116.9375 630.925781 1120.199219 638.796875 C 1123.457031 646.664062 1126.519531 654.605469 1129.390625 662.625 C 1132.257812 670.644531 1134.929688 678.730469 1137.402344 686.878906 C 1139.875 695.027344 1142.144531 703.234375 1144.214844 711.496094 C 1146.285156 719.757812 1148.148438 728.0625 1149.8125 736.417969 C 1151.472656 744.769531 1152.929688 753.160156 1154.179688 761.582031 C 1155.425781 770.007812 1156.46875 778.457031 1157.304688 786.933594 C 1158.140625 795.410156 1158.765625 803.898438 1159.183594 812.40625 C 1159.601562 820.910156 1159.8125 829.421875 1159.8125 837.941406 Z M 1159.8125 837.941406 "/>
</g>
<path style=" stroke:none;fill-rule:nonzero;fill:rgb(100%,100%,100%);fill-opacity:1;" d="M 688.335938 936.46875 C 688.335938 937.160156 688.335938 937.507812 688.335938 938.203125 L 1062.324219 938.203125 C 1062.324219 937.507812 1062.324219 937.160156 1062.324219 936.46875 C 1062.324219 905.9375 1037.34375 880.957031 1006.816406 880.957031 C 1000.222656 880.957031 993.980469 882 988.082031 884.082031 C 990.164062 877.144531 991.203125 869.855469 991.203125 862.226562 C 991.203125 820.246094 957.207031 786.59375 915.574219 786.59375 C 888.167969 786.59375 863.882812 801.164062 850.699219 823.367188 C 846.535156 822.328125 842.027344 821.980469 837.515625 821.980469 C 804.90625 821.980469 778.191406 848.347656 778.191406 881.304688 C 778.191406 885.816406 778.539062 890.324219 779.578125 894.488281 C 769.863281 886.164062 757.375 881.304688 743.84375 881.304688 C 713.316406 880.957031 688.335938 905.9375 688.335938 936.46875 Z M 688.335938 936.46875 "/>
<use xlink:href="#surface5" transform="matrix(1,0,0,1,687,785)" mask="url(#mask0)"/>
<path style=" stroke:none;fill-rule:nonzero;fill:rgb(100%,100%,100%);fill-opacity:1;" d="M 401.777344 710.964844 C 401.777344 711.3125 401.777344 712.003906 401.777344 712.351562 L 705.335938 712.351562 C 705.335938 712.003906 705.335938 711.3125 705.335938 710.964844 C 705.335938 685.984375 685.214844 665.863281 660.234375 665.863281 C 655.03125 665.863281 649.828125 666.90625 645.316406 668.640625 C 647.050781 663.089844 648.09375 657.191406 648.09375 650.945312 C 648.09375 616.949219 620.6875 589.539062 586.6875 589.539062 C 564.484375 589.539062 544.710938 601.335938 533.953125 619.375 C 530.484375 618.683594 527.015625 617.988281 523.199219 617.988281 C 496.488281 617.988281 474.976562 639.496094 474.976562 666.210938 C 474.976562 670.027344 475.324219 673.496094 476.363281 676.964844 C 468.386719 670.375 458.324219 666.210938 447.222656 666.210938 C 421.898438 665.863281 401.777344 685.984375 401.777344 710.964844 Z M 401.777344 710.964844 "/>
<use xlink:href="#surface8" transform="matrix(1,0,0,1,399,588)" mask="url(#mask1)"/>
<path style=" stroke:none;fill-rule:nonzero;fill:rgb(78.819275%,78.819275%,93.328857%);fill-opacity:1;" d="M 948.878906 833.429688 C 948.878906 1004.8125 809.761719 1143.929688 638.378906 1143.929688 C 466.996094 1143.929688 327.878906 1004.8125 327.878906 833.429688 C 327.878906 662.046875 466.996094 522.929688 638.378906 522.929688 L 639.421875 522.929688 C 572.464844 557.96875 527.015625 628.394531 527.015625 708.882812 C 527.015625 825.105469 621.03125 919.121094 737.253906 919.121094 C 834.738281 919.121094 916.960938 852.511719 940.554688 762.308594 C 946.105469 785.207031 948.878906 809.144531 948.878906 833.429688 Z M 948.878906 833.429688 "/>
<path style=" stroke:none;fill-rule:nonzero;fill:rgb(79.998779%,100%,79.60968%);fill-opacity:1;" d="M 827.800781 614.867188 L 839.25 635.683594 C 839.597656 636.027344 839.945312 636.375 840.289062 636.722656 L 861.105469 648.171875 C 862.839844 649.210938 862.839844 651.988281 861.105469 653.027344 L 840.289062 664.476562 C 839.945312 664.824219 839.597656 665.171875 839.25 665.515625 L 827.800781 686.332031 C 826.761719 688.066406 823.984375 688.066406 822.945312 686.332031 L 811.496094 665.515625 C 811.148438 665.171875 810.800781 664.824219 810.457031 664.476562 L 789.640625 653.027344 C 787.90625 651.988281 787.90625 649.210938 789.640625 648.171875 L 810.457031 636.722656 C 810.800781 636.375 811.148438 636.027344 811.496094 635.683594 L 822.945312 614.867188 C 823.984375 613.132812 826.761719 613.132812 827.800781 614.867188 Z M 827.800781 614.867188 "/>
<path style=" stroke:none;fill-rule:nonzero;fill:rgb(79.998779%,100%,79.60968%);fill-opacity:1;" d="M 468.039062 450.421875 L 477.058594 467.074219 C 477.40625 467.421875 477.40625 467.769531 477.753906 467.769531 L 494.40625 476.789062 C 495.792969 477.484375 495.792969 479.566406 494.40625 480.605469 L 477.753906 489.625 C 477.40625 489.972656 477.058594 489.972656 477.058594 490.320312 L 468.039062 506.972656 C 467.34375 508.359375 465.261719 508.359375 464.222656 506.972656 L 455.203125 490.320312 C 454.855469 489.972656 454.855469 489.625 454.507812 489.625 L 437.507812 480.605469 C 436.121094 479.910156 436.121094 477.828125 437.507812 476.789062 L 454.160156 467.769531 C 454.507812 467.421875 454.855469 467.421875 454.855469 467.074219 L 463.875 450.421875 C 464.917969 449.035156 466.996094 449.035156 468.039062 450.421875 Z M 468.039062 450.421875 "/>
<path style=" stroke:none;fill-rule:nonzero;fill:rgb(79.998779%,100%,79.60968%);fill-opacity:1;" d="M 703.253906 1186.253906 L 708.804688 1196.664062 C 708.804688 1197.007812 709.152344 1197.007812 709.5 1197.355469 L 719.90625 1202.90625 C 720.949219 1203.253906 720.949219 1204.640625 719.90625 1205.335938 L 709.5 1210.886719 C 709.152344 1210.886719 709.152344 1211.234375 708.804688 1211.582031 L 703.253906 1221.988281 C 702.90625 1223.027344 701.519531 1223.027344 700.828125 1221.988281 L 695.277344 1211.582031 C 695.277344 1211.234375 694.929688 1211.234375 694.582031 1210.886719 L 684.175781 1205.335938 C 683.132812 1204.988281 683.132812 1203.601562 684.175781 1202.90625 L 694.582031 1197.355469 C 694.929688 1197.355469 694.929688 1197.007812 695.277344 1196.664062 L 700.828125 1186.253906 C 701.519531 1185.214844 702.90625 1185.214844 703.253906 1186.253906 Z M 703.253906 1186.253906 "/>
<path style=" stroke:none;fill-rule:nonzero;fill:rgb(79.998779%,100%,79.60968%);fill-opacity:1;" d="M 288.332031 701.945312 L 295.269531 714.78125 C 295.269531 715.128906 295.617188 715.128906 295.960938 715.476562 L 308.800781 722.414062 C 309.839844 723.105469 309.839844 724.84375 308.800781 725.1875 L 295.960938 732.128906 C 295.617188 732.128906 295.617188 732.472656 295.269531 732.820312 L 288.332031 745.65625 C 287.636719 746.699219 285.902344 746.699219 285.554688 745.65625 L 278.617188 732.820312 C 278.617188 732.472656 278.269531 732.472656 277.921875 732.128906 L 265.085938 725.1875 C 264.046875 724.496094 264.046875 722.761719 265.085938 722.414062 L 277.921875 715.476562 C 278.269531 715.476562 278.269531 715.128906 278.617188 714.78125 L 285.554688 701.945312 C 286.25 700.902344 287.984375 700.902344 288.332031 701.945312 Z M 288.332031 701.945312 "/>
<path style=" stroke:none;fill-rule:nonzero;fill:rgb(79.998779%,100%,79.60968%);fill-opacity:1;" d="M 224.148438 869.511719 L 237.679688 894.140625 C 238.027344 894.835938 238.371094 895.183594 239.066406 895.53125 L 263.699219 909.058594 C 265.78125 910.101562 265.78125 913.222656 263.699219 914.609375 L 239.066406 928.140625 C 238.371094 928.488281 238.027344 928.835938 237.679688 929.527344 L 224.148438 954.160156 C 223.109375 956.242188 219.984375 956.242188 218.597656 954.160156 L 205.066406 929.527344 C 204.722656 928.835938 204.375 928.488281 203.679688 928.140625 L 179.046875 914.609375 C 176.96875 913.570312 176.96875 910.449219 179.046875 909.058594 L 203.679688 895.53125 C 204.375 895.183594 204.722656 894.835938 205.066406 894.140625 L 218.597656 869.511719 C 219.640625 867.429688 222.761719 867.429688 224.148438 869.511719 Z M 224.148438 869.511719 "/>
<path style=" stroke:none;fill-rule:nonzero;fill:rgb(79.998779%,100%,79.60968%);fill-opacity:1;" d="M 989.816406 1001.691406 L 999.53125 1019.382812 C 999.878906 1019.730469 1000.222656 1020.078125 1000.570312 1020.421875 L 1018.265625 1030.136719 C 1020 1031.179688 1020 1033.261719 1018.265625 1034.300781 L 1000.570312 1044.015625 C 1000.222656 1044.363281 999.878906 1044.707031 999.53125 1045.054688 L 989.816406 1062.75 C 988.777344 1064.484375 986.695312 1064.484375 985.652344 1062.75 L 975.9375 1045.054688 C 975.59375 1044.707031 975.246094 1044.363281 974.898438 1044.015625 L 957.207031 1034.300781 C 955.46875 1033.261719 955.46875 1031.179688 957.207031 1030.136719 L 974.898438 1020.421875 C 975.246094 1020.078125 975.59375 1019.730469 975.9375 1019.382812 L 985.652344 1001.691406 C 986.695312 999.953125 989.121094 999.953125 989.816406 1001.691406 Z M 989.816406 1001.691406 "/>
<path style=" stroke:none;fill-rule:nonzero;fill:rgb(79.998779%,100%,79.60968%);fill-opacity:1;" d="M 402.816406 1098.828125 L 408.019531 1108.542969 C 408.019531 1108.890625 408.367188 1108.890625 408.367188 1108.890625 L 418.082031 1114.09375 C 418.773438 1114.441406 418.773438 1115.828125 418.082031 1116.175781 L 408.367188 1121.378906 C 408.019531 1121.378906 408.019531 1121.726562 408.019531 1121.726562 L 402.816406 1131.441406 C 402.46875 1132.132812 401.082031 1132.132812 400.734375 1131.441406 L 395.53125 1121.726562 C 395.53125 1121.378906 395.183594 1121.378906 395.183594 1121.378906 L 385.46875 1116.175781 C 384.777344 1115.828125 384.777344 1114.441406 385.46875 1114.09375 L 395.183594 1108.890625 C 395.53125 1108.890625 395.53125 1108.542969 395.53125 1108.542969 L 400.734375 1098.828125 C 401.082031 1098.136719 402.46875 1098.136719 402.816406 1098.828125 Z M 402.816406 1098.828125 "/>
<path style=" stroke:none;fill-rule:nonzero;fill:rgb(79.998779%,100%,79.60968%);fill-opacity:1;" d="M 1031.101562 606.886719 L 1038.039062 619.375 C 1038.039062 619.722656 1038.386719 619.722656 1038.734375 620.070312 L 1051.222656 627.007812 C 1052.261719 627.703125 1052.261719 629.089844 1051.222656 629.785156 L 1038.734375 636.722656 C 1038.386719 636.722656 1038.386719 637.070312 1038.039062 637.417969 L 1031.101562 649.90625 C 1030.40625 650.945312 1029.019531 650.945312 1028.324219 649.90625 L 1021.386719 637.417969 C 1021.386719 637.070312 1021.039062 637.070312 1020.691406 636.722656 L 1008.203125 629.785156 C 1007.164062 629.089844 1007.164062 627.703125 1008.203125 627.007812 L 1020.691406 620.070312 C 1021.039062 620.070312 1021.039062 619.722656 1021.386719 619.375 L 1028.324219 606.886719 C 1029.019531 605.847656 1030.40625 605.847656 1031.101562 606.886719 Z M 1031.101562 606.886719 "/>
<path style=" stroke:none;fill-rule:nonzero;fill:rgb(79.998779%,100%,79.60968%);fill-opacity:1;" d="M 693.886719 813.65625 L 697.703125 820.59375 C 697.703125 820.59375 698.050781 820.941406 698.050781 820.941406 L 704.988281 824.757812 C 705.683594 825.105469 705.683594 826.144531 704.988281 826.492188 L 698.050781 830.308594 C 698.050781 830.308594 697.703125 830.65625 697.703125 830.65625 L 693.886719 837.59375 C 693.539062 838.285156 692.5 838.285156 692.152344 837.59375 L 688.335938 830.65625 C 688.335938 830.65625 687.988281 830.308594 687.988281 830.308594 L 681.050781 826.492188 C 680.359375 826.144531 680.359375 825.105469 681.050781 824.757812 L 687.988281 820.941406 C 687.988281 820.941406 688.335938 820.59375 688.335938 820.59375 L 692.152344 813.65625 C 692.5 812.960938 693.539062 812.960938 693.886719 813.65625 Z M 693.886719 813.65625 "/>
<path style=" stroke:none;fill-rule:nonzero;fill:rgb(79.998779%,100%,79.60968%);fill-opacity:1;" d="M 746.273438 448.339844 L 750.089844 455.28125 C 750.089844 455.28125 750.4375 455.625 750.4375 455.625 L 757.375 459.441406 C 758.070312 459.789062 758.070312 460.832031 757.375 461.175781 L 750.4375 464.992188 C 750.4375 464.992188 750.089844 465.339844 750.089844 465.339844 L 746.273438 472.277344 C 745.925781 472.972656 744.886719 472.972656 744.539062 472.277344 L 740.722656 465.339844 C 740.722656 465.339844 740.375 464.992188 740.375 464.992188 L 733.4375 461.175781 C 732.742188 460.832031 732.742188 459.789062 733.4375 459.441406 L 740.375 455.625 C 740.375 455.625 740.722656 455.28125 740.722656 455.28125 L 744.539062 448.339844 C 745.234375 447.648438 745.925781 447.648438 746.273438 448.339844 Z M 746.273438 448.339844 "/>
<path style=" stroke:none;fill-rule:nonzero;fill:rgb(100%,100%,100%);fill-opacity:1;" d="M 758.761719 1053.730469 C 758.761719 1054.421875 758.761719 1055.117188 758.761719 1055.808594 L 252.597656 1055.808594 C 252.597656 1055.117188 252.597656 1054.421875 252.597656 1053.730469 C 252.597656 1012.445312 286.25 978.792969 327.878906 978.792969 C 336.554688 978.792969 345.226562 980.179688 352.859375 983.300781 C 350.082031 973.933594 348.347656 963.875 348.347656 953.8125 C 348.347656 897.265625 394.144531 851.125 451.039062 851.125 C 488.160156 851.125 520.769531 870.898438 538.8125 900.734375 C 544.710938 899.347656 550.605469 898.652344 556.851562 898.652344 C 571.074219 898.652344 584.257812 902.121094 595.707031 908.714844 C 620.339844 922.242188 637.339844 948.609375 637.339844 978.792969 C 637.339844 985.035156 636.644531 990.933594 635.257812 996.484375 C 648.441406 985.382812 665.09375 978.792969 683.828125 978.792969 C 725.109375 978.445312 758.761719 1012.097656 758.761719 1053.730469 Z M 758.761719 1053.730469 "/>
<use xlink:href="#surface11" transform="matrix(1,0,0,1,250,848)" mask="url(#mask2)"/>
<use xlink:href="#surface14" transform="matrix(1,0,0,1,802,952)" mask="url(#mask3)"/>
<use xlink:href="#surface17" transform="matrix(1,0,0,1,847,928)" mask="url(#mask4)"/>
<use xlink:href="#surface20" transform="matrix(1,0,0,1,465,615)" mask="url(#mask5)"/>
<use xlink:href="#surface23" transform="matrix(1,0,0,1,729,445)" mask="url(#mask6)"/>
<use xlink:href="#surface26" transform="matrix(1,0,0,1,677,810)" mask="url(#mask7)"/>
<use xlink:href="#surface29" transform="matrix(1,0,0,1,382,1097)" mask="url(#mask8)"/>
<use xlink:href="#surface32" transform="matrix(1,0,0,1,955,997)" mask="url(#mask9)"/>
<use xlink:href="#surface35" transform="matrix(1,0,0,1,261,699)" mask="url(#mask10)"/>
<use xlink:href="#surface38" transform="matrix(1,0,0,1,1007,605)" mask="url(#mask11)"/>
<path style=" stroke:none;fill-rule:nonzero;fill:rgb(24.308777%,44.309998%,75.289917%);fill-opacity:1;" d="M 662.402344 837.574219 C 662.402344 837.574219 640.828125 838.476562 612.820312 837.75 C 601.816406 854.554688 595.167969 869.003906 597.234375 886.089844 C 597.234375 886.089844 601.605469 899.917969 622.972656 901.21875 L 666.042969 894.523438 L 704.101562 895.925781 C 704.101562 895.925781 741.152344 855.402344 717.378906 848.304688 L 671.449219 854.242188 L 662.402344 837.574219 "/>
<path style=" stroke:none;fill-rule:nonzero;fill:rgb(96.859741%,59.609985%,52.159119%);fill-opacity:1;" d="M 690.429688 886.878906 L 706.269531 888.277344 L 706.019531 900.316406 L 690.191406 899.894531 L 690.429688 886.878906 "/>
<path style=" stroke:none;fill-rule:nonzero;fill:rgb(12.548828%,21.569824%,37.249756%);fill-opacity:1;" d="M 701.460938 900.351562 C 708.292969 902.230469 727.796875 900.65625 734.894531 897.96875 C 743.484375 894.707031 742.890625 877.535156 732.074219 879.996094 C 722.265625 882.222656 711.964844 886.222656 701.964844 887.035156 C 701.964844 887.035156 696.011719 891.644531 701.460938 900.351562 "/>
<path style=" stroke:none;fill-rule:nonzero;fill:rgb(13.729858%,35.289001%,61.178589%);fill-opacity:1;" d="M 661.953125 889.324219 C 663.019531 889.191406 663.988281 888.921875 664.988281 888.542969 C 665.101562 888.5 665.8125 888.238281 665.398438 888.382812 C 665.738281 888.265625 666.054688 888.113281 666.378906 887.960938 C 666.914062 887.707031 667.449219 887.449219 667.976562 887.1875 C 670.363281 886.015625 672.761719 884.78125 675.042969 883.402344 C 676.261719 882.664062 677.476562 881.914062 678.6875 881.15625 C 679.949219 880.363281 681.332031 879.617188 682.5 878.6875 C 684.402344 877.179688 686.34375 875.734375 688.238281 874.214844 C 689.847656 872.921875 691.375 871.566406 692.890625 870.164062 C 695.769531 867.503906 698.773438 864.988281 701.703125 862.382812 C 704.640625 859.761719 707.355469 856.875 710.433594 854.414062 C 713.242188 852.167969 716.285156 850.269531 719.425781 848.523438 C 720.28125 848.050781 721.144531 847.585938 722.007812 847.125 C 722.960938 846.617188 723.996094 846.222656 724.773438 845.460938 C 725.144531 845.101562 724.945312 844.726562 724.523438 844.519531 C 723.949219 844.238281 723.210938 844.226562 722.601562 844.398438 C 720.691406 844.941406 718.933594 846.078125 717.195312 847.027344 C 715.59375 847.902344 714.007812 848.816406 712.460938 849.789062 C 709.300781 851.78125 706.355469 854.03125 703.703125 856.671875 C 700.914062 859.449219 698 862.066406 695.027344 864.648438 C 693.527344 865.953125 692.035156 867.257812 690.5625 868.59375 C 689.601562 869.46875 688.683594 870.390625 687.699219 871.238281 C 686.058594 872.648438 684.203125 873.808594 682.382812 874.96875 C 682.109375 875.140625 681.425781 875.59375 680.945312 875.859375 C 680.289062 876.214844 679.640625 876.578125 678.984375 876.9375 C 678.289062 877.3125 677.628906 877.734375 676.960938 878.160156 C 676.675781 878.34375 676.386719 878.527344 676.097656 878.714844 C 676.421875 878.503906 675.945312 878.808594 675.921875 878.824219 C 675.726562 878.945312 675.53125 879.070312 675.335938 879.191406 C 674.121094 879.953125 672.898438 880.699219 671.671875 881.4375 C 671.019531 881.832031 670.375 882.25 669.730469 882.660156 C 669.699219 882.683594 669.246094 882.96875 669.578125 882.757812 C 669.441406 882.84375 669.308594 882.929688 669.171875 883.015625 C 668.859375 883.210938 668.546875 883.40625 668.230469 883.601562 C 666.253906 884.832031 664.195312 885.960938 662.261719 887.25 C 661.929688 887.472656 661.585938 887.671875 661.289062 887.9375 C 661.140625 888.070312 661.007812 888.195312 660.878906 888.351562 C 660.84375 888.398438 660.617188 888.667969 660.726562 888.542969 C 660.144531 889.214844 661.558594 889.375 661.953125 889.324219 "/>
<path style=" stroke:none;fill-rule:nonzero;fill:rgb(24.308777%,44.309998%,75.289917%);fill-opacity:1;" d="M 724.925781 861.375 C 725.175781 861.375 725.816406 861.308594 725.816406 860.941406 C 725.816406 860.574219 725.175781 860.503906 724.925781 860.503906 C 724.679688 860.503906 724.035156 860.574219 724.035156 860.941406 C 724.035156 861.308594 724.679688 861.375 724.925781 861.375 "/>
<path style=" stroke:none;fill-rule:nonzero;fill:rgb(24.308777%,44.309998%,75.289917%);fill-opacity:1;" d="M 738.292969 842.628906 C 754.195312 844.695312 750.082031 859.4375 744.507812 864.539062 C 729.5 878.289062 707.847656 888.640625 688.960938 895.925781 C 688.320312 896.175781 670.425781 902.839844 667.429688 904.035156 C 671.148438 895.0625 662.84375 888.8125 662.84375 888.8125 C 662.84375 888.8125 683.984375 878.59375 698.164062 863.703125 C 698.164062 863.703125 719.355469 838.625 738.292969 842.628906 "/>
<path style=" stroke:none;fill-rule:nonzero;fill:rgb(97.24884%,63.139343%,56.079102%);fill-opacity:1;" d="M 709.402344 770.3125 C 712.890625 766.929688 717.46875 763.382812 717.941406 762.851562 C 719.996094 760.507812 720.457031 760.582031 721.238281 759.589844 C 722.753906 757.664062 721.964844 757.996094 723.566406 756.117188 C 727.808594 751.140625 731.496094 738.390625 728.679688 740.71875 C 720.675781 747.320312 716.226562 749.070312 714.9375 750.097656 C 714.9375 750.097656 716.328125 743.84375 714.066406 744.714844 C 714.066406 744.714844 712.847656 744.714844 711.457031 749.925781 C 710.929688 751.898438 709.796875 753.015625 709.058594 755.898438 C 709.058594 755.898438 706.777344 762.425781 705.820312 768.257812 C 705.820312 768.257812 707.210938 769.671875 709.402344 770.3125 "/>
<path style=" stroke:none;fill-rule:nonzero;fill:rgb(97.24884%,63.139343%,56.079102%);fill-opacity:1;" d="M 717.671875 845.671875 C 710.539062 853.628906 702.117188 850.363281 695.039062 841.382812 C 678.355469 820.230469 675.386719 803.585938 675.957031 794.828125 C 675.402344 793.074219 681.070312 779.183594 692.6875 790.074219 C 692.6875 790.074219 696.632812 787.128906 708.488281 818.136719 C 708.488281 818.136719 711.453125 824.761719 715.214844 822.199219 C 715.214844 822.199219 727.773438 834.40625 717.671875 845.671875 "/>
<path style=" stroke:none;fill-rule:nonzero;fill:rgb(30.979919%,59.999084%,42.349243%);fill-opacity:1;" d="M 682.265625 829.152344 C 682.265625 829.152344 705.433594 825.53125 710.90625 808.835938 L 694.90625 770.269531 C 694.90625 770.269531 690.367188 754.667969 676.8125 763.320312 C 676.8125 763.320312 659.515625 774.945312 669.464844 793.179688 L 682.265625 829.152344 "/>
<path style=" stroke:none;fill-rule:nonzero;fill:rgb(97.24884%,63.139343%,56.079102%);fill-opacity:1;" d="M 678.433594 758.039062 L 663.214844 743.238281 L 680.917969 725.085938 L 696.136719 739.890625 C 696.136719 739.890625 680.5625 752.613281 678.433594 758.039062 "/>
<path style=" stroke:none;fill-rule:nonzero;fill:rgb(96.078491%,48.629761%,43.139648%);fill-opacity:1;" d="M 681.992188 753.238281 C 687.191406 747.96875 696.136719 739.890625 696.136719 739.890625 L 680.917969 725.085938 L 675.601562 730.535156 C 675.488281 738.335938 676.789062 746.96875 681.992188 753.238281 "/>
<path style=" stroke:none;fill-rule:nonzero;fill:rgb(96.859741%,57.649231%,50.979614%);fill-opacity:1;" d="M 714.484375 744.601562 C 707.613281 748.53125 694.894531 754.261719 687.796875 752.003906 C 679.1875 749.261719 678.894531 728.582031 681.601562 720.785156 C 684.988281 711.023438 697.007812 703.40625 706.507812 700.136719 C 717.339844 696.410156 729.058594 702.328125 732.234375 713.652344 C 735.410156 724.96875 723.496094 739.453125 714.484375 744.601562 "/>
<path style=" stroke:none;fill-rule:nonzero;fill:rgb(96.078491%,48.629761%,43.139648%);fill-opacity:1;" d="M 707.101562 700.171875 C 709.175781 699.511719 711.273438 699.207031 713.332031 699.214844 L 692.921875 715.257812 L 684.492188 720.34375 L 681.375 721.207031 C 681.480469 720.859375 681.589844 720.523438 681.703125 720.214844 C 685.320312 710.542969 697.523438 703.214844 707.101562 700.171875 "/>
<path style=" stroke:none;fill-rule:nonzero;fill:rgb(96.859741%,57.649231%,50.979614%);fill-opacity:1;" d="M 693.257812 703.542969 C 688.894531 702.890625 682.710938 709.847656 684.042969 716.660156 C 686.355469 716.875 690.058594 714.074219 692.011719 712.863281 C 693.9375 711.679688 695.710938 710.457031 696.425781 708.214844 C 696.640625 707.527344 696.476562 704.03125 693.257812 703.542969 "/>
<path style=" stroke:none;fill-rule:nonzero;fill:rgb(96.078491%,48.629761%,43.139648%);fill-opacity:1;" d="M 690.566406 710.851562 C 690.359375 710.988281 690.164062 711.136719 689.964844 711.28125 C 689.835938 711.378906 689.703125 711.464844 689.5625 711.542969 C 689.832031 711.585938 689.871094 711.582031 689.675781 711.535156 C 689.503906 711.484375 689.394531 711.367188 689.375 711.191406 C 689.328125 710.71875 689.8125 710.210938 690.097656 709.898438 C 690.523438 709.441406 691.003906 709.039062 691.488281 708.65625 C 691.625 708.546875 691.886719 708.3125 691.886719 708.117188 C 691.886719 708.066406 691.972656 707.984375 691.914062 707.824219 C 691.847656 707.652344 691.503906 707.660156 691.363281 707.671875 C 690.773438 707.734375 690.242188 708.039062 689.707031 708.511719 C 689.089844 709.054688 688.464844 709.660156 688.0625 710.382812 C 687.703125 711.027344 687.859375 711.617188 688.515625 711.960938 C 688.9375 712.179688 689.601562 712.324219 690.0625 712.191406 C 690.640625 712.027344 691.011719 711.488281 691.429688 711.097656 C 691.785156 710.769531 690.777344 710.710938 690.566406 710.851562 "/>
<path style=" stroke:none;fill-rule:nonzero;fill:rgb(96.078491%,48.629761%,43.139648%);fill-opacity:1;" d="M 692.539062 708.949219 C 693 708.292969 692.777344 707.277344 692.089844 706.867188 C 691.375 706.441406 690.476562 706.445312 689.691406 706.660156 C 688.824219 706.898438 688.03125 707.539062 687.46875 708.214844 C 686.929688 708.863281 686.515625 710.015625 686.753906 710.839844 C 686.824219 711.074219 687.382812 710.996094 687.488281 710.839844 C 688.195312 709.820312 688.519531 708.589844 689.527344 707.789062 C 689.871094 707.511719 690.390625 707.164062 690.859375 707.203125 C 691.453125 707.257812 691.894531 708.355469 691.742188 708.84375 C 691.636719 709.171875 692.398438 709.148438 692.539062 708.949219 "/>
<path style=" stroke:none;fill-rule:nonzero;fill:rgb(36.079407%,12.159729%,10.198975%);fill-opacity:1;" d="M 724.804688 700.1875 C 724.675781 701.140625 724.234375 702.074219 723.738281 702.796875 C 722.898438 704.972656 718.519531 712.492188 717.925781 713.765625 C 716.3125 717.214844 712.8125 716.375 709.84375 715.550781 C 708.910156 715.292969 707.972656 715.019531 707.03125 714.761719 C 704.203125 713.992188 701.335938 713.394531 698.382812 713.863281 C 696.433594 714.175781 691.761719 716.285156 690.25 714.089844 C 692.46875 712.609375 696.667969 709.03125 695.285156 705.273438 C 695.191406 704.757812 694.222656 703.386719 690.945312 703.6875 C 690.945312 703.6875 709.339844 683.835938 724.804688 700.1875 "/>
<path style=" stroke:none;fill-rule:nonzero;fill:rgb(36.079407%,12.159729%,10.198975%);fill-opacity:1;" d="M 717.132812 715.078125 L 724.53125 700.121094 C 730.085938 700.683594 735.3125 711.378906 735.3125 711.382812 C 737.117188 715.078125 739.640625 728.382812 730.59375 738.109375 C 730.59375 738.109375 717.328125 755.476562 702.460938 750.367188 C 713.476562 746.03125 720.078125 742.203125 724.292969 734.351562 C 721.925781 732.320312 718.90625 725.746094 718.636719 723.101562 C 718.339844 720.203125 717.460938 716.667969 717.785156 713.761719 "/>
<path style=" stroke:none;fill-rule:nonzero;fill:rgb(96.469116%,52.159119%,52.938843%);fill-opacity:1;" d="M 701.34375 733.132812 C 700.4375 733.65625 698.695312 732.355469 697.449219 730.21875 C 696.207031 728.085938 695.933594 725.929688 696.835938 725.402344 C 697.742188 724.875 699.484375 726.179688 700.730469 728.3125 C 701.972656 730.449219 702.246094 732.605469 701.34375 733.132812 "/>
<path style=" stroke:none;fill-rule:nonzero;fill:rgb(96.469116%,52.159119%,52.938843%);fill-opacity:1;" d="M 709.589844 747.289062 C 708.683594 747.8125 707.136719 746.847656 706.136719 745.125 C 705.132812 743.410156 705.054688 741.585938 705.960938 741.0625 C 706.867188 740.535156 708.414062 741.503906 709.414062 743.222656 C 710.417969 744.941406 710.496094 746.761719 709.589844 747.289062 "/>
<path style=" stroke:none;fill-rule:nonzero;fill:rgb(96.078491%,48.629761%,43.139648%);fill-opacity:1;" d="M 710.058594 734.300781 C 709.335938 734.15625 708.707031 734.566406 708.175781 735 C 707.597656 735.480469 707.078125 736.023438 706.695312 736.671875 C 706.328125 737.28125 706.125 737.972656 705.921875 738.648438 C 705.734375 739.273438 705.578125 739.984375 705.097656 740.457031 C 704.953125 740.601562 704.789062 740.695312 704.617188 740.742188 C 704.558594 740.757812 704.363281 740.757812 704.257812 740.734375 C 703.761719 740.625 703.300781 740.371094 702.878906 740.09375 C 701.996094 739.507812 701.242188 738.730469 700.554688 737.984375 C 700.582031 738.078125 700.609375 738.175781 700.632812 738.273438 C 700.65625 738.25 700.675781 738.222656 700.691406 738.195312 C 700.941406 737.828125 699.996094 737.753906 699.839844 737.777344 C 699.730469 737.800781 699.617188 737.824219 699.503906 737.847656 C 699.371094 737.875 698.988281 738.074219 699.148438 738.273438 C 699.875 739.160156 700.847656 739.894531 701.8125 740.496094 C 702.816406 741.117188 704.152344 741.632812 705.328125 741.210938 C 706.710938 740.714844 706.816406 739.105469 707.183594 737.894531 C 707.414062 737.140625 707.769531 736.445312 708.292969 735.851562 C 708.53125 735.582031 708.804688 735.335938 709.0625 735.089844 C 709.304688 734.859375 709.628906 734.550781 709.980469 734.574219 C 710.25 734.589844 710.363281 734.363281 710.058594 734.300781 "/>
<path style=" stroke:none;fill-rule:nonzero;fill:rgb(36.079407%,12.159729%,10.198975%);fill-opacity:1;" d="M 704.335938 722.59375 C 705.691406 723.242188 706.902344 724.210938 707.550781 725.585938 C 707.847656 726.21875 707.96875 726.914062 708.011719 727.605469 C 708.027344 727.945312 708.011719 728.285156 707.988281 728.625 C 707.957031 729.035156 707.769531 729.453125 708.023438 729.804688 C 708.332031 730.230469 709.273438 730.25 709.65625 729.910156 C 710.238281 729.382812 710.054688 728.171875 709.96875 727.445312 C 709.882812 726.664062 709.632812 725.894531 709.265625 725.203125 C 708.390625 723.574219 706.777344 722.675781 705.074219 722.128906 C 704.789062 722.035156 703.734375 722.308594 704.335938 722.59375 "/>
<path style=" stroke:none;fill-rule:nonzero;fill:rgb(36.079407%,12.159729%,10.198975%);fill-opacity:1;" d="M 717.742188 742.101562 C 717.933594 740.632812 717.644531 739.335938 716.722656 738.160156 C 715.871094 737.074219 714.234375 735.800781 712.792969 735.835938 C 712.507812 735.839844 711.773438 735.9375 711.933594 736.386719 C 712.101562 736.847656 713.160156 737.097656 713.582031 737.332031 C 714.125 737.640625 714.605469 738.054688 715.027344 738.511719 C 715.90625 739.449219 716.355469 740.859375 716.527344 742.101562 C 716.582031 742.523438 717.6875 742.523438 717.742188 742.101562 "/>
<path style="fill:none;stroke-width:102.886002;stroke-linecap:round;stroke-linejoin:round;stroke:rgb(44.709778%,25.878906%,18.818665%);stroke-opacity:1;stroke-miterlimit:10;" d="M 12834.402688 16099.397727 C 12834.402688 16099.397727 12830.07088 15927.620396 12983.128071 15843.466854 " transform="matrix(0.0135264,0,0,-0.0135077,529.697541,943.481069)"/>
<path style="fill:none;stroke-width:102.886002;stroke-linecap:round;stroke-linejoin:round;stroke:rgb(44.709778%,25.878906%,18.818665%);stroke-opacity:1;stroke-miterlimit:10;" d="M 13413.998504 15102.568665 C 13413.998504 15102.568665 13409.666696 14931.08052 13562.723888 14846.926979 " transform="matrix(0.0135264,0,0,-0.0135077,529.697541,943.481069)"/>
<path style=" stroke:none;fill-rule:nonzero;fill:rgb(96.078491%,48.629761%,43.139648%);fill-opacity:1;" d="M 695.617188 739.578125 C 695.742188 740.25 696.105469 740.847656 696.375 741.464844 C 696.667969 742.128906 697.050781 742.761719 697.292969 743.453125 C 697.511719 744.082031 697.550781 744.742188 697.53125 745.40625 C 697.523438 745.632812 697.507812 745.859375 697.476562 746.082031 C 697.464844 746.167969 697.449219 746.253906 697.421875 746.335938 C 697.40625 746.378906 697.386719 746.414062 697.363281 746.453125 C 697.4375 746.328125 697.558594 746.289062 697.351562 746.441406 C 697.472656 746.394531 697.597656 746.347656 697.71875 746.304688 C 697.546875 746.335938 697.289062 746.394531 697.265625 746.613281 C 697.246094 746.789062 697.511719 746.894531 697.636719 746.929688 C 697.921875 747.011719 698.273438 747.007812 698.542969 746.871094 C 699.003906 746.644531 698.988281 746.046875 698.996094 745.601562 C 699.011719 744.9375 698.945312 744.292969 698.765625 743.65625 C 698.558594 742.917969 698.167969 742.210938 697.738281 741.578125 C 697.640625 741.4375 697.582031 741.257812 697.488281 741.109375 C 697.363281 740.917969 697.214844 740.753906 697.066406 740.582031 C 696.773438 740.25 696.480469 739.925781 696.265625 739.535156 C 696.183594 739.382812 695.578125 739.363281 695.617188 739.578125 "/>
<path style=" stroke:none;fill-rule:nonzero;fill:rgb(38.819885%,65.098572%,42.349243%);fill-opacity:1;" d="M 689.683594 762.28125 C 686.902344 781.039062 688.640625 784.863281 688.292969 798.066406 C 688.097656 805.46875 677.117188 804.496094 674.03125 811.269531 C 671.140625 817.597656 669.574219 823.3125 667.90625 829.914062 C 666.320312 836.214844 666.324219 838.542969 659.636719 840.929688 C 653.242188 843.207031 649.039062 842.777344 642.367188 843.347656 C 635.515625 843.9375 628.03125 846.59375 621.132812 846.023438 C 610.226562 845.125 609.523438 836.375 609.085938 828.089844 C 607.742188 802.816406 607.285156 776.464844 623.523438 755.234375 C 628.902344 748.203125 636.425781 742.53125 644.835938 739.679688 C 651.078125 737.5625 660.742188 736.894531 667.070312 739 C 668.113281 739.347656 674.03125 756.027344 683.074219 752.203125 L 689.683594 762.28125 "/>
<path style=" stroke:none;fill-rule:nonzero;fill:rgb(97.24884%,63.139343%,56.079102%);fill-opacity:1;" d="M 720.988281 841.234375 C 724.632812 801.492188 715.546875 789.085938 710.464844 767.265625 C 710.464844 767.265625 707.585938 766.730469 705.460938 768.582031 C 700.078125 794.023438 703.109375 825.796875 703.109375 825.796875 C 703.109375 825.796875 704.140625 846.671875 720.988281 841.234375 "/>
<path style=" stroke:none;fill-rule:nonzero;fill:rgb(97.24884%,63.139343%,56.079102%);fill-opacity:1;" d="M 653.269531 847.980469 C 695.019531 853.074219 700.03125 853.628906 721.738281 850.882812 C 720.128906 852.597656 724.589844 848.878906 723.128906 846.019531 C 692.152344 843.507812 667.953125 831.589844 667.953125 831.589844 C 667.953125 831.589844 652.082031 830.335938 653.269531 847.980469 "/>
<path style=" stroke:none;fill-rule:nonzero;fill:rgb(97.24884%,63.139343%,56.079102%);fill-opacity:1;" d="M 714.601562 846.546875 L 723.980469 841.65625 C 723.980469 841.65625 727.277344 840.464844 730.925781 840.855469 L 747.945312 843.78125 C 747.945312 843.78125 750.332031 844.917969 747.082031 846.339844 C 747.082031 846.339844 724.332031 854.144531 713.601562 851.746094 L 714.601562 846.546875 "/>
<path style=" stroke:none;fill-rule:nonzero;fill:rgb(30.979919%,59.999084%,42.349243%);fill-opacity:1;" d="M 630.585938 755.183594 C 628.789062 756.261719 627.878906 758.035156 627.136719 759.933594 C 626.519531 761.507812 625.894531 763.113281 625.394531 764.730469 C 624.894531 766.359375 624.503906 768.042969 624.347656 769.742188 C 624.28125 770.46875 624.273438 771.210938 624.417969 771.929688 C 624.574219 772.714844 624.914062 773.078125 625.660156 773.347656 C 625.835938 773.410156 626.804688 773.4375 626.722656 773.050781 C 626.679688 772.847656 626.726562 772.699219 626.621094 772.5 C 626.488281 772.25 626.402344 771.96875 626.34375 771.695312 C 626.195312 771.007812 626.210938 770.285156 626.246094 769.585938 C 626.328125 767.988281 626.652344 766.386719 627.0625 764.839844 C 627.445312 763.378906 627.972656 761.9375 628.441406 760.496094 C 629.035156 758.671875 629.816406 756.769531 631.253906 755.433594 C 631.539062 755.167969 630.753906 755.085938 630.585938 755.183594 "/>
<path style=" stroke:none;fill-rule:nonzero;fill:rgb(97.24884%,63.139343%,56.079102%);fill-opacity:1;" d="M 664.496094 846.394531 C 655.492188 852.160156 648.246094 846.769531 643.824219 836.226562 C 633.402344 811.394531 634.984375 794.566406 637.875 786.277344 C 637.808594 784.441406 646.984375 772.5625 655.269531 786.152344 C 655.269531 786.152344 661.148438 790.386719 664.289062 823.425781 C 664.289062 823.425781 663.941406 828.640625 672.289062 832.460938 C 672.289062 832.460938 677.238281 838.230469 664.496094 846.394531 "/>
<path style=" stroke:none;fill-rule:nonzero;fill:rgb(38.819885%,65.098572%,42.349243%);fill-opacity:1;" d="M 630.191406 821.34375 C 630.191406 821.34375 656.632812 822.039062 666.722656 805.011719 L 661.191406 766.703125 C 661.191406 766.703125 658.320312 751.613281 642.242188 752.191406 C 642.242188 752.191406 624.976562 754.730469 624.277344 775.480469 L 630.191406 821.34375 "/>
<path style=" stroke:none;fill-rule:nonzero;fill:rgb(30.979919%,59.999084%,42.349243%);fill-opacity:1;" d="M 658.175781 775.132812 C 659.105469 780.921875 660.875 786.535156 661.96875 792.289062 C 662.507812 795.140625 662.617188 798.019531 662.808594 800.90625 C 663.003906 803.785156 662.980469 806.652344 663.046875 809.53125 C 663.066406 810.539062 665.890625 810.234375 665.484375 809.367188 C 665.328125 809.035156 665.179688 808.886719 664.886719 808.664062 C 664.578125 808.425781 663.996094 808.425781 663.6875 808.664062 C 663.394531 808.886719 663.246094 809.035156 663.089844 809.367188 C 663.902344 809.421875 664.714844 809.476562 665.53125 809.53125 C 665.644531 803.75 664.824219 797.945312 663.707031 792.289062 C 662.5625 786.492188 660.773438 780.839844 659.265625 775.132812 C 659.167969 774.769531 658.121094 774.78125 658.175781 775.132812 "/>
<path style=" stroke:none;fill-rule:nonzero;fill:rgb(30.979919%,59.999084%,42.349243%);fill-opacity:1;" d="M 624.101562 776.523438 C 624.355469 778.796875 624.40625 781.097656 624.632812 783.378906 C 624.925781 786.355469 625.195312 789.335938 625.484375 792.3125 C 625.765625 795.191406 626.050781 798.074219 626.480469 800.933594 C 626.65625 802.085938 626.851562 803.238281 627.09375 804.382812 C 627.253906 805.136719 627.460938 805.867188 627.558594 806.632812 C 627.996094 810.042969 628.074219 813.492188 628.824219 816.855469 C 629.148438 818.308594 629.566406 819.816406 630.578125 820.949219 C 631.554688 822.039062 634.039062 822.34375 635.015625 821.128906 C 635.4375 820.605469 633.933594 820.484375 633.742188 820.507812 C 633.679688 820.515625 633.363281 820.535156 633.699219 820.519531 C 633.535156 820.527344 633.367188 820.535156 633.203125 820.550781 C 632.910156 820.566406 633.523438 820.542969 633.25 820.542969 C 633.75 820.542969 633.148438 820.480469 633.609375 820.589844 C 633.375 820.53125 633.875 820.707031 633.65625 820.609375 C 633.59375 820.582031 633.40625 820.464844 633.664062 820.628906 C 633.523438 820.542969 633.394531 820.429688 633.273438 820.316406 C 633.078125 820.140625 633.179688 820.238281 633.050781 820.066406 C 632.941406 819.921875 632.847656 819.765625 632.757812 819.613281 C 632.535156 819.226562 632.363281 818.808594 632.210938 818.390625 C 631.460938 816.371094 631.195312 814.152344 630.9375 812.023438 C 630.707031 810.121094 630.589844 808.203125 630.300781 806.3125 C 630.175781 805.492188 629.917969 804.695312 629.746094 803.886719 C 629.492188 802.703125 629.289062 801.507812 629.101562 800.3125 C 628.421875 796.007812 627.871094 791.691406 627.304688 787.371094 C 626.820312 783.671875 626.304688 780.007812 625.128906 776.457031 C 625.035156 776.175781 624.066406 776.195312 624.101562 776.523438 "/>
<path style=" stroke:none;fill-rule:nonzero;fill:rgb(96.859741%,59.609985%,52.159119%);fill-opacity:1;" d="M 670.421875 887.621094 L 655.695312 893.613281 L 659.480469 905.046875 L 674.484375 899.988281 L 670.421875 887.621094 "/>
<g clip-path="url(#clip22)" clip-rule="nonzero">
<path style=" stroke:none;fill-rule:nonzero;fill:rgb(12.548828%,21.569824%,37.249756%);fill-opacity:1;" d="M 663.847656 903.738281 C 657.871094 907.542969 638.769531 911.765625 631.199219 911.28125 C 622.023438 910.695312 617.53125 894.105469 628.597656 893.277344 C 638.625 892.527344 649.648438 893.324219 659.441406 891.15625 C 659.441406 891.15625 666.492188 893.816406 663.847656 903.738281 "/>
</g>
<path style=" stroke:none;fill-rule:nonzero;fill:rgb(13.729858%,35.289001%,61.178589%);fill-opacity:1;" d="M 641.511719 889.953125 C 642.625 888.4375 644.117188 887.015625 645.816406 886.183594 C 646.175781 886.007812 646.550781 885.851562 646.933594 885.722656 C 647.066406 885.675781 647.335938 885.605469 647.414062 885.589844 C 647.488281 885.578125 647.730469 885.570312 647.566406 885.554688 C 647.308594 885.539062 647.769531 885.621094 647.578125 885.546875 C 647.839844 885.648438 648.003906 885.695312 648.203125 885.777344 C 648.628906 885.953125 649.042969 886.179688 649.445312 886.394531 C 651.011719 887.234375 652.335938 888.472656 653.8125 889.453125 C 655.707031 890.707031 658.207031 891.851562 660.5 891.132812 C 661.230469 890.90625 661.558594 890.378906 660.820312 889.914062 C 661.050781 890.058594 660.535156 889.71875 660.394531 889.664062 C 660.109375 889.527344 659.808594 889.441406 659.492188 889.40625 C 659.679688 889.441406 659.660156 889.433594 659.441406 889.382812 C 658.9375 889.253906 658.839844 889.203125 658.320312 888.957031 C 657.46875 888.550781 656.667969 888.042969 655.886719 887.515625 C 654.066406 886.292969 652.273438 884.941406 650.105469 884.410156 C 649.074219 884.15625 647.960938 883.992188 646.792969 884.179688 C 645.714844 884.355469 644.730469 884.792969 643.859375 885.445312 C 642.332031 886.585938 640.996094 888.082031 640.085938 889.757812 C 639.816406 890.261719 641.25 890.308594 641.511719 889.953125 "/>
<path style=" stroke:none;fill-rule:nonzero;fill:rgb(24.308777%,44.309998%,75.289917%);fill-opacity:1;" d="M 701.460938 900.351562 C 703.902344 895.320312 702.527344 884.832031 702.527344 884.832031 L 693.984375 880.351562 C 683.441406 872.164062 670.933594 866.84375 660.609375 858.386719 C 652.617188 851.835938 644.796875 840.90625 633.183594 842.066406 C 625.328125 842.851562 619.914062 848.746094 615.40625 854.664062 C 607.898438 864.523438 597.234375 872.570312 597.234375 886.089844 C 597.234375 897.507812 612.402344 906.078125 620.582031 904.785156 C 626.628906 903.832031 635.714844 896.222656 639.074219 891.636719 L 648.097656 880.523438 C 648.097656 880.523438 651.683594 892.191406 686.519531 899.515625 C 686.519531 899.515625 696.875 901.726562 701.460938 900.351562 "/>
<path style=" stroke:none;fill-rule:nonzero;fill:rgb(13.729858%,35.289001%,61.178589%);fill-opacity:1;" d="M 639.570312 842.8125 C 640.859375 843.28125 641.957031 844.246094 643.042969 845.0625 C 644.429688 846.109375 645.738281 847.257812 647.097656 848.34375 C 648.578125 849.523438 650.082031 850.675781 651.667969 851.710938 C 652.683594 852.375 653.683594 853.050781 654.65625 853.78125 C 659.296875 857.238281 663.714844 861.089844 667.929688 865.050781 C 669.828125 866.839844 671.722656 868.613281 673.765625 870.242188 C 676.023438 872.046875 678.371094 873.734375 680.757812 875.359375 C 683.179688 877.007812 685.628906 878.632812 688.121094 880.167969 C 689.410156 880.960938 690.699219 881.753906 691.984375 882.554688 C 692.632812 882.957031 693.257812 883.367188 693.953125 883.6875 C 694.777344 884.070312 695.636719 884.273438 696.480469 884.605469 C 696.644531 884.671875 698.03125 884.714844 697.679688 884.265625 C 697.460938 883.988281 697.335938 883.816406 697.226562 883.488281 C 697.109375 883.132812 696.660156 882.808594 696.402344 882.554688 C 695.695312 881.859375 694.742188 881.347656 693.921875 880.792969 C 692.335938 879.71875 690.742188 878.65625 689.136719 877.609375 C 685.980469 875.558594 682.851562 873.46875 679.835938 871.210938 C 674.617188 867.308594 669.945312 862.746094 664.820312 858.722656 C 661.273438 855.9375 657.664062 853.203125 653.769531 850.917969 C 651.167969 849.394531 648.804688 847.507812 646.320312 845.808594 C 644.304688 844.425781 642.265625 843.140625 639.855469 842.574219 C 639.671875 842.53125 639.210938 842.679688 639.570312 842.8125 "/>
<path style=" stroke:none;fill-rule:nonzero;fill:rgb(13.729858%,35.289001%,61.178589%);fill-opacity:1;" d="M 602.398438 868.609375 C 604.398438 866.8125 606.078125 864.675781 607.859375 862.660156 C 609.621094 860.664062 611.445312 858.722656 613.304688 856.820312 C 615.007812 855.082031 616.707031 853.296875 618.171875 851.351562 C 618.859375 850.445312 619.628906 849.769531 620.554688 849.109375 C 620.945312 848.832031 621.476562 848.550781 621.78125 848.175781 C 622.058594 847.832031 622.25 847.414062 622.515625 847.054688 C 622.5625 846.992188 622.355469 846.976562 622.320312 847.011719 C 621.882812 847.425781 621.386719 847.632812 620.867188 847.914062 C 620.40625 848.164062 619.980469 848.53125 619.542969 848.820312 C 618.539062 849.484375 617.5 850.09375 616.539062 850.820312 C 615.515625 851.589844 614.484375 852.359375 613.53125 853.210938 C 612.523438 854.109375 611.617188 855.105469 610.667969 856.066406 C 608.796875 857.960938 606.96875 859.90625 605.195312 861.898438 C 604.296875 862.910156 603.429688 863.949219 602.582031 865.007812 C 602.164062 865.53125 601.753906 866.054688 601.347656 866.585938 C 600.964844 867.085938 600.722656 867.640625 600.453125 868.207031 C 600.085938 868.984375 602.042969 868.929688 602.398438 868.609375 "/>
<path style=" stroke:none;fill-rule:nonzero;fill:rgb(100%,100%,100%);fill-opacity:1;" d="M 711.671875 889.730469 C 712.320312 891.011719 712.816406 892.46875 712.960938 893.902344 C 713.03125 894.578125 713 895.265625 712.945312 895.941406 C 712.886719 896.683594 712.621094 897.539062 712.730469 898.273438 C 712.78125 898.625 713.671875 898.644531 713.796875 898.34375 C 714.074219 897.683594 714.058594 896.847656 714.121094 896.136719 C 714.179688 895.394531 714.191406 894.648438 714.121094 893.902344 C 713.960938 892.21875 713.179688 890.9375 712.089844 889.675781 C 712.011719 889.585938 711.589844 889.570312 711.671875 889.730469 "/>
<path style=" stroke:none;fill-rule:nonzero;fill:rgb(100%,100%,100%);fill-opacity:1;" d="M 717.871094 888.351562 C 718.164062 888.96875 718.554688 889.503906 718.769531 890.164062 C 718.996094 890.851562 719.058594 891.621094 719.105469 892.339844 C 719.152344 893.027344 719.140625 893.722656 719.144531 894.414062 C 719.148438 894.949219 719.023438 895.820312 719.445312 896.210938 C 719.691406 896.4375 720.363281 896.433594 720.558594 896.136719 C 720.722656 895.894531 720.621094 895.636719 720.589844 895.355469 C 720.554688 894.988281 720.542969 894.617188 720.53125 894.246094 C 720.503906 893.492188 720.484375 892.738281 720.40625 891.984375 C 720.25 890.542969 719.675781 888.945312 718.34375 888.214844 C 718.253906 888.167969 717.773438 888.148438 717.871094 888.351562 "/>
<path style=" stroke:none;fill-rule:nonzero;fill:rgb(100%,100%,100%);fill-opacity:1;" d="M 723 886.460938 C 722.929688 886.929688 723.433594 887.546875 723.613281 887.988281 C 723.886719 888.664062 724.0625 889.398438 724.242188 890.109375 C 724.417969 890.804688 724.523438 891.519531 724.597656 892.234375 C 724.664062 892.859375 724.550781 893.628906 724.808594 894.207031 C 724.988281 894.609375 726.140625 894.613281 726.320312 894.207031 C 726.570312 893.628906 726.40625 892.847656 726.355469 892.234375 C 726.289062 891.445312 726.152344 890.667969 725.96875 889.898438 C 725.800781 889.214844 725.535156 888.59375 725.207031 887.976562 C 724.871094 887.351562 724.46875 886.617188 723.816406 886.296875 C 723.621094 886.199219 723.042969 886.152344 723 886.460938 "/>
<path style=" stroke:none;fill-rule:nonzero;fill:rgb(100%,100%,100%);fill-opacity:1;" d="M 637.996094 897.53125 C 637.128906 898.722656 637.53125 900.539062 637.851562 901.863281 C 638.035156 902.617188 638.382812 903.351562 638.742188 904.035156 C 639.035156 904.589844 639.398438 905.246094 639.949219 905.582031 C 640.070312 905.65625 640.675781 905.667969 640.566406 905.40625 C 640.351562 904.886719 639.960938 904.425781 639.730469 903.902344 C 639.425781 903.21875 639.257812 902.5 639.042969 901.785156 C 638.640625 900.453125 638.425781 898.953125 638.722656 897.578125 C 638.777344 897.324219 638.101562 897.390625 637.996094 897.53125 "/>
<path style=" stroke:none;fill-rule:nonzero;fill:rgb(100%,100%,100%);fill-opacity:1;" d="M 643.628906 896.613281 C 643.230469 897.1875 643.011719 897.667969 642.976562 898.363281 C 642.949219 899.011719 643.078125 899.664062 643.238281 900.289062 C 643.394531 900.894531 643.644531 901.445312 643.917969 902.003906 C 644.191406 902.554688 644.414062 903.242188 644.972656 903.535156 C 645.171875 903.636719 645.640625 903.660156 645.773438 903.429688 C 645.996094 903.042969 645.609375 902.578125 645.441406 902.207031 C 645.175781 901.613281 644.957031 901.007812 644.71875 900.40625 C 644.257812 899.230469 644.144531 897.90625 644.226562 896.652344 C 644.238281 896.429688 643.714844 896.488281 643.628906 896.613281 "/>
<path style=" stroke:none;fill-rule:nonzero;fill:rgb(100%,100%,100%);fill-opacity:1;" d="M 648.734375 895.492188 C 648.394531 896.933594 648.683594 901.984375 651.136719 901.484375 C 651.230469 901.464844 651.5 901.414062 651.476562 901.265625 C 651.433594 900.96875 650.988281 900.714844 650.828125 900.441406 C 650.550781 899.957031 650.402344 899.363281 650.28125 898.824219 C 650.027344 897.722656 650.039062 896.585938 649.777344 895.492188 C 649.691406 895.132812 648.816406 895.132812 648.734375 895.492188 "/>
<path style=" stroke:none;fill-rule:nonzero;fill:rgb(36.079407%,12.159729%,10.198975%);fill-opacity:1;" d="M 725.449219 700.582031 C 715.609375 689.519531 699.40625 685.746094 686.042969 691.78125 C 678.722656 695.085938 676.121094 700.824219 671.050781 706.511719 C 665.628906 712.589844 660.085938 711.03125 653.082031 712.625 C 644.808594 714.507812 640.21875 720.828125 638.214844 728.378906 C 636.191406 735.992188 631.304688 737.605469 625.375 742.390625 C 614.515625 751.152344 608.320312 765.089844 609.003906 778.871094 C 609.128906 781.421875 609.078125 785.253906 610.023438 787.589844 C 618.589844 789.03125 620.867188 784.027344 626.292969 778.5 C 632.4375 772.238281 637.164062 772.90625 645.195312 773.3125 C 648.941406 773.503906 652.414062 773.234375 655.390625 770.882812 C 658.632812 768.3125 657.785156 765.492188 659.679688 762.195312 C 663.484375 755.578125 671.722656 757.539062 675.941406 750.742188 C 679.300781 745.324219 677.648438 738.894531 681.742188 733.449219 C 685.582031 728.339844 692.472656 727.132812 695.863281 721.53125 C 699.558594 715.429688 697.949219 709.625 705.964844 707.519531 C 708.933594 706.742188 714.730469 707.976562 717.5625 706.371094 C 717.5625 706.371094 724.054688 703.59375 725.449219 700.582031 "/>
</g>
</svg>
